<?xml version="1.0" encoding="UTF-8"?>
<svg id="Capa_2" data-name="Capa 2" xmlns="http://www.w3.org/2000/svg" viewBox="0 0 183.08 183.08">
  <g id="isotipo">
    <g id="icono">
      <path d="M72.23,137.55h.11c2-.3,3.81-.47,5.43-.49h19.49c.46,0,.76-.14.91-.42.08-.13.08-.25,0-.38-.23-.41-.93-1.09-2.11-2.05s-1.88-1.44-2.11-1.44c-.1,0-.23.08-.38.23-.15.15-.34.39-.57.7-.23.32-.39.54-.49.67l-1.14,1.6h-15.24c-1.7-.05-3.24-.14-4.64-.27-.18,0-.27.06-.27.19,0,.08.01.13.04.15l.68,1.33c.08.13.16.19.27.19Z"/>
      <path d="M84.5,89.4c-.01.06-.01.12-.01.18,0,.04,0,.08.01.12.01-.06.01-.12.01-.18,0-.04,0-.08-.01-.12Z"/>
      <path d="M73.26,161.87c-1.39,2.08-3.34,3.93-5.85,5.55-.13.08-.19.15-.19.23s.01.13.04.15c.05.1.16.14.34.11,3.55-1.19,6.33-2.79,8.34-4.79,2.01-2,3.46-4.34,4.33-7.01.87-2.67,1.42-5.86,1.65-9.56h4.64v16.26c0,1.09.13,1.91.38,2.47.25.56.7.95,1.33,1.18.63.23,1.58.34,2.85.34h3.46c1.92,0,3.43-.09,4.52-.29,1.09-.19,1.86-.48,2.3-.87.44-.39.67-.91.67-1.54,0-.48-.1-.87-.3-1.16-.2-.29-.58-.56-1.14-.82l-.11-5.85c0-.2-.06-.3-.19-.3-.15,0-.24.09-.27.27-.79,3.07-1.37,4.93-1.75,5.59-.1.23-.21.39-.32.47-.11.09-.29.13-.51.13-.35.03-1.17.04-2.43.04h-2.81c-.53,0-.89-.06-1.06-.17s-.27-.34-.27-.67v-15.09h9.58c.48,0,.8-.14.95-.42.08-.13.08-.25,0-.38-.23-.43-.96-1.15-2.18-2.17-1.23-1.01-1.96-1.52-2.19-1.52-.1,0-.22.08-.36.25-.14.17-.32.41-.55.72-.23.32-.41.56-.53.74l-1.18,1.67h-22.04c-1.7-.05-3.24-.14-4.64-.27-.18,0-.27.06-.27.19,0,.08.01.13.04.15l.68,1.33c.08.13.16.19.27.19h.11c2-.3,3.81-.47,5.43-.49h3.04c-.05,3.24-.35,6.09-.89,8.53-.55,2.44-1.51,4.71-2.91,6.78Z"/>
      <path d="M154.74,74.31c0-6.85-5.16-12.4-11.52-12.4-2.59,0-4.98.92-6.9,2.46-2.8,2.26-4.62,5.87-4.62,9.94,0,2.9.92,5.57,2.47,7.67.46.63.98,1.22,1.55,1.74v-7.44c0-.71.58-1.28,1.28-1.28s1.28.57,1.28,1.28v9.24c1.13.59,2.36.97,3.66,1.13v-10.37c0-.71.58-1.28,1.28-1.28s1.28.57,1.28,1.28v10.37c1.01-.13,1.97-.39,2.88-.77v-9.6c0-.71.58-1.28,1.28-1.28s1.28.57,1.28,1.28v8.1c2.91-2.24,4.8-5.92,4.8-10.07Z"/>
      <path d="M91.54,0C40.98,0,0,40.98,0,91.54c0,24.12,9.34,46.06,24.59,62.41.94-7.03,2.74-13.64,5.25-19.55,0-.01,0-.03.02-.04h-.02s0-.02.02-.04c.87-1.7,1.74-3.41,2.61-5.12,0-.01,0-.02.02-.03.04-.06.07-.12.1-.18.36-.61.72-1.22,1.06-1.85.38-.68.74-1.37,1.1-2.08,1.59-3.16,2.96-6.54,4.09-10.11.98-3.08,1.78-6.29,2.37-9.62l-1.18,9.96c-.13,1.05-.23,2.11-.32,3.18-.2,2.54-.3,5.13-.3,7.75,0,2.21.07,4.4.22,6.55v.03c.06.85.13,1.69.21,2.53,1.49,15.91,6.83,29.91,14.55,39.74,0,.02.01.03.03.05.03.05.07.11.11.16,6.92,3.06,14.29,5.29,21.99,6.56-1.12-.32-2.21-.71-3.28-1.17-10.63-4.55-18.07-15.11-18.07-27.4,0-3.14.49-6.16,1.39-9,.36-1.14.78-2.25,1.28-3.32,1.14-2.52,2.62-4.86,4.4-6.94.01-.01.02-.02.02-.04.02,0,.04-.03.06-.05,1.33-1.58,2.84-3.01,4.49-4.27,1.33-1.04,2.76-1.96,4.26-2.74,1.94-1.03,4-1.85,6.16-2.42.24-.07.48-.13.73-.18.01-.01.01-.02.02-.01.89-.22,1.79-.39,2.71-.52,1.4-.21,2.83-.31,4.28-.31,4.11,0,8.03.83,11.6,2.34,1.44.61,2.83,1.33,4.14,2.16,2.4,1.49,4.56,3.31,6.44,5.4,2.79,3.11,4.94,6.81,6.23,10.89.74,2.33,1.2,4.79,1.34,7.34.03.55.05,1.11.05,1.67,0,7.91-3.09,15.1-8.12,20.43h0s-.05.06-.07.08c-4.93,5.19-11.71,8.6-19.27,9.19,1.4.06,2.82.1,4.23.1,9.65,0,18.95-1.5,27.69-4.27.01-.09.03-.17.04-.26.08-.49.17-.97.27-1.45.09-.48.18-.95.29-1.43.04-.2.08-.4.13-.6.13-.58.27-1.15.41-1.72.14-.57.29-1.13.45-1.7.07-.3.15-.59.23-.89.03-.12.07-.23.1-.35.15-.5.29-.99.44-1.48.04-.13.08-.27.13-.41.04-.14.09-.27.13-.4.09-.27.18-.54.27-.81.05-.15.1-.3.15-.45.04-.15.1-.29.15-.44.02-.06.04-.12.06-.18.17-.48.34-.95.52-1.42.11-.3.23-.59.35-.89.2-.5.4-1,.6-1.49s.41-.98.63-1.46c.22-.49.45-.97.67-1.44.17-.36.34-.71.51-1.06.16-.29.31-.57.46-.86.03-.07.07-.14.11-.22.04-.07.08-.14.12-.22.11-.22.23-.44.35-.65.2-.39.41-.76.63-1.14.25-.44.51-.88.78-1.32.26-.43.53-.86.8-1.28.13-.21.27-.42.42-.63.13-.21.27-.42.42-.62.28-.41.56-.82.85-1.22.29-.4.59-.79.88-1.18.3-.39.6-.77.91-1.14.16-.2.33-.4.5-.6.16-.2.33-.4.5-.59.06-.08.13-.15.2-.23.18-.22.37-.43.56-.63.02-.01.03-.03.04-.04.1-.12.21-.23.31-.34.24-.26.49-.52.73-.77,0,0,0-.01,0-.01.11-.08.21-.17.32-.25.02,0,.03-.03.05-.04.38-.28.75-.58,1.11-.89.29-.24.58-.49.86-.73.1-.08.2-.17.29-.26.12-.09.24-.2.35-.31.24-.22.48-.45.72-.69.38-.35.76-.73,1.13-1.11l.1-.1c.2-.21.41-.42.59-.63.43-.43.83-.88,1.2-1.33.22-.23.42-.46.62-.7h.01c2.07-2.5,3.97-5.27,5.67-8.29h0s.01-.01.01-.01c.74-1.32,1.44-2.68,2.1-4.08.21-.44.41-.88.61-1.32,1.5-3.06,3.12-6.24,3.5-9.78t0-.02s.03-.07.03-.11c.02-.31.05-.31.03-.51-.03-.22,0-.46-.07-.67-.25-5.1-1.73-9.81-4.08-13.67h0c-.24-.39-.48-.77-.74-1.14-1.61-2.37-3.58-4.38-5.79-5.89,0,0,0,0,0-.01,0,0-.01,0-.01-.01-.22-.15-.45-.3-.67-.44-.06-.04-.12-.07-.17-.1-.06-.04-.11-.07-.17-.1-.04-.03-.08-.05-.12-.08-.07-.04-.13-.08-.2-.11-.57-.33-1.15-.63-1.75-.89-.05-.03-.1-.05-.16-.07-.07-.03-.14-.06-.21-.09-.27-.12-.54-.22-.82-.32-.25-.09-.5-.18-.75-.25-.15-.05-.3-.1-.45-.13-.09-.03-.19-.05-.28-.08t-.02-.01h-.02c-1.13-.3-2.29-.48-3.48-.54h-.07c-.26-.01-.53-.02-.79-.02-.4,0-.81.01-1.21.04h-.02c-.19.02-.39.04-.58.07-.15.01-.31.03-.47.05l-.18.03c-.22.03-.45.07-.67.11-.04,0-.08.01-.12.02-.27.05-.54.11-.8.18-.28.06-.55.13-.82.22-.12.02-.23.05-.34.09-.02.01-.03.01-.05.02-.01,0-.02,0-.03.02-.03,0-.06.01-.09.02,0,.04,0,.07-.01.11-.01.03-.02.06-.02.09-.27,4.19-.7,8.3-1.27,12.28-.51,3.42-1.6,6.73-3.21,9.79-.62,1.18-1.26,2.34-1.92,3.46-.03.04-.05.08-.07.11-.39.68-.79,1.34-1.21,1.98-1.77,2.84-3.67,5.48-5.69,7.88-.67.81-1.36,1.59-2.06,2.34-.4.44-.81.87-1.22,1.28-.09.1-.24.11-.35.04h0c-.4-.46-.82-.9-1.24-1.33-3.82-3.85-8.52-6.84-13.77-8.63.45-.13.91-.27,1.36-.41s.89-.29,1.33-.45c0,0,.01,0,.02-.01h.02s.01,0,.02,0c.39-.14.78-.29,1.17-.44.39-.15.76-.3,1.14-.47h0c.2-.08.38-.16.57-.25.19-.08.38-.16.57-.25.07-.03.13-.07.2-.1.3-.14.6-.28.9-.44h0c.37-.18.74-.37,1.1-.57.36-.19.72-.39,1.07-.6h.01c.35-.2.7-.41,1.05-.63h.01c.34-.21.68-.43,1.02-.66h.01s.08-.06.12-.09c.05-.03.09-.06.13-.09.37-.24.73-.49,1.08-.75,1.02-.72,2.01-1.5,2.95-2.34.15-.11.29-.24.44-.39.09-.06.18-.14.26-.23.02,0,.03-.03.05-.05.06-.04.12-.1.18-.15.08-.06.15-.13.23-.2,2.34-2.18,4.41-4.62,6.17-7.28.3-.45.58-.91.86-1.37,1.76-2.9,3.15-6.03,4.11-9.35h0c.62-2.13,1.06-4.33,1.31-6.59.16-1.43.24-2.89.24-4.36,0-.56-.01-1.11-.04-1.66-.02-.48-.05-.96-.09-1.43-.01-.22-.03-.44-.06-.65-.02-.25-.05-.5-.08-.75-.02-.19-.05-.38-.08-.57-.07-.51-.15-1.01-.25-1.5-.14-.74-.3-1.46-.5-2.17-.05-.22-.11-.44-.17-.65-.11-.4-.23-.79-.36-1.17-.04-.13-.09-.26-.13-.38-.14-.4-.29-.79-.44-1.18-.02-.05-.04-.1-.06-.14-.14-.36-.3-.71-.46-1.06-.04-.11-.09-.21-.14-.31-.18-.38-.36-.75-.56-1.12-.21-.42-.45-.83-.69-1.23-.22-.38-.46-.76-.7-1.13-.18-.27-.37-.54-.56-.8-.1-.15-.2-.3-.32-.44-.18-.25-.37-.5-.58-.75-.15-.2-.31-.4-.49-.6-.07-.08-.13-.16-.21-.24-.2-.25-.42-.5-.65-.73-.09-.11-.19-.21-.29-.31-.1-.11-.2-.22-.32-.32,0-.02-.02-.04-.05-.05-.13-.15-.27-.29-.42-.43-.14-.15-.29-.28-.44-.42-.04-.04-.09-.08-.13-.11-.17-.17-.34-.33-.52-.47-.14-.14-.28-.26-.42-.37-.34-.3-.69-.58-1.04-.84-.21-.17-.42-.33-.64-.49-.21-.16-.43-.32-.65-.47-.18-.14-.35-.26-.53-.37-.21-.15-.43-.29-.65-.42-.19-.14-.38-.26-.57-.36-.24-.15-.48-.29-.72-.43-.4-.25-.81-.47-1.22-.7-.41-.22-.83-.43-1.26-.63-.43-.22-.87-.42-1.32-.62t-.02-.01c-.45-.2-.91-.4-1.38-.57-.37-.16-.75-.31-1.14-.44-.11-.05-.22-.09-.34-.13-.45-.17-.91-.32-1.37-.47-.24-.08-.49-.16-.74-.23-.24-.07-.49-.15-.74-.22-.49-.15-.99-.29-1.5-.41-.25-.07-.51-.13-.77-.19-.25-.06-.51-.12-.77-.18-.41-.1-.82-.18-1.24-.26-.1-.03-.21-.05-.32-.07-.12-.02-.24-.05-.36-.07.02-.04.04-.08.06-.12.03-.07.07-.13.11-.2.08-.17.17-.34.26-.51.08-.17.17-.33.27-.5.11-.2.22-.39.33-.59.12-.2.23-.39.35-.59.23-.39.47-.77.72-1.15.21-.32.42-.64.64-.95.1-.16.21-.32.34-.48.11-.16.22-.31.34-.46.07-.12.16-.23.25-.34.24-.31.49-.63.74-.94.06-.08.12-.16.19-.24h.01c.1-.12.2-.24.3-.36.1-.12.2-.24.31-.36.05-.07.11-.13.18-.2.3-.34.61-.68.92-1.01.09-.11.18-.21.29-.3.12-.13.24-.25.37-.37.08-.1.19-.2.3-.3.64-.64,1.32-1.25,2.01-1.84.02-.02.04-.03.05-.05.68-.57,1.38-1.13,2.1-1.66l.02-.02c.73-.52,1.48-1.04,2.25-1.53h0c.39-.24.78-.48,1.18-.71.34-.2.68-.39,1.02-.58.37-.2.74-.4,1.12-.58.33-.17.67-.34,1.01-.49.26-.13.52-.25.79-.35.25-.12.49-.22.74-.32.33-.14.66-.27.99-.4.34-.13.67-.25,1.01-.37.39-.14.78-.27,1.17-.39.31-.1.61-.19.92-.28.01,0,.02-.01.03,0,.14-.04.27.04.33.17.46,1.26.91,2.56,1.33,3.88.83,2.53,1.58,5.16,2.27,7.87,1.6,6.31,2.82,13.06,3.58,20.13.34,3.22.59,6.5.75,9.84,0,.02,0,.03,0,.04h0c.05.3.47.31.54,0,.05-.22.1-.43.16-.65.38-1.48.91-2.88,1.59-4.16.34-.64.72-1.26,1.13-1.84.62-.87,1.3-1.66,2.05-2.37.25-.24.51-.46.77-.68.52-.44,1.08-.83,1.65-1.18l.57-.33c.08-.04.16-.09.25-.13.11-.06.22-.12.34-.17.13-.07.27-.13.41-.19.07-.03.13-.06.2-.09.19-.08.38-.16.58-.23.26-.09.53-.18.8-.27h.03c.27-.08.54-.15.82-.21h.02c.27-.06.55-.11.84-.15,0-.01.01-.01.02,0,.21-.03.42-.06.64-.08.04,0,.08-.01.12-.01.06-.01.13-.01.2-.01.26-.02.52-.03.79-.03.2,0,.4,0,.6.01.06,0,.12,0,.17,0,.02,0,.04.01.06.01.12,0,.24.01.36.03.12.01.25.02.37.04.17.02.34.04.5.07.1.01.2.03.3.05.03.01.06.01.09.02.08.02.17.04.26.05.12.03.24.06.36.09.14.03.28.07.42.11,0,.01.01.01.02.01.02,0,.03.01.05.01.16.05.32.1.48.16.19.06.37.13.55.2.02.01.04.02.06.02.02,0,.03.02.05.02.19.08.38.16.56.24.13.06.26.13.39.19,1.04.52,2.01,1.18,2.91,1.95.2.17.39.34.58.53.72.69,1.38,1.46,1.98,2.3h0c2.06,2.92,3.29,6.64,3.29,10.7,0,1.85-.26,3.62-.73,5.28v.21c.66,3.62,1.19,7.32,1.57,11.12.59,5.57.89,11.32.89,17.19,0,6.99-.43,13.79-1.24,20.34-.03.24-.06.48-.09.72v.02c-.12.96-.26,1.92-.4,2.87v.16c-.01.11-.03.21-.05.32h.05c-.02,6.77-.91,13.87-2.77,21.03-.36,1.4-.77,2.78-1.19,4.14,18.15-16.73,29.52-40.69,29.52-67.32C183.08,40.98,142.1,0,91.54,0ZM84.7,47.96c1.18,0,2.35.03,3.5.09,2.88.14,5.67.46,8.35.97-4.72,3.68-8.53,8.48-11.03,13.99-.4.86-.76,1.74-1.08,2.64-.38-1-.82-1.98-1.28-2.93h0c-.56-1.14-1.18-2.24-1.85-3.31h0c-2.48-3.96-5.67-7.42-9.41-10.19,4.02-.85,8.33-1.26,12.81-1.26ZM49.37,89.65l11.74-2.19c.74-.14,1.48.16,1.65.66h0c.17.5-.3,1.03-1.04,1.17l-11.74,2.19c-.74.14-1.48-.16-1.65-.66-.17-.5.3-1.03,1.04-1.17ZM47.87,82.68c.14-.51.86-.86,1.61-.76l11.85,1.48c.75.09,1.25.59,1.11,1.1s-.86.86-1.61.76l-11.85-1.48c-.75-.09-1.25-.59-1.11-1.1ZM60.56,75.46c-.6.22-1.09-.56-.61-1,1.8-1.65,4.29-2.67,7.04-2.67,4.44,0,8.2,2.66,9.48,6.33.22.63-.59,1.12-1.02.61-2.1-2.49-5.74-4.14-9.89-4.14-1.79,0-3.49.31-5,.86ZM60.92,126.78c-1.13,1.05-2.2,2.17-3.2,3.35-.65-.62-1.28-1.26-1.9-1.93-.13-.14-.27-.29-.4-.44-2.53-2.79-5.17-6.22-7.42-9.73-.33-.52-.66-1.05-.98-1.58-.62-1.03-1.22-2.09-1.81-3.18t-.01-.02c-.5-.9-.85-1.86-1.06-2.88h0v-.03c-.14-.66-.27-1.33-.39-2-.38-2.04-.73-4.12-1.03-6.23-.02-.17-.05-.33-.07-.5-.1-.72-.19-1.44-.28-2.17-.07-.52-.13-1.05-.19-1.58,0-.01-.01-.03,0-.04-.09-.72-.17-1.45-.24-2.18-.1-1.01-.19-2.02-.27-3.04-.07-.82-.13-1.65-.18-2.48-.01-.13-.02-.26-.03-.39-.01-.18-.02-.37-.03-.56-.03-.41-.05-.83-.07-1.24-.01-.3-.03-.59-.04-.89-.03-.55-.06-1.1-.07-1.66-.02-.37-.03-.74-.04-1.12-.02-.38-.03-.75-.03-1.13-.01-.5-.02-1.01-.03-1.52-.01-.79-.02-1.59-.02-2.39,0-1.01.01-2.02.03-3.03v-.07c.01-.45.02-.9.03-1.35.01-.31.02-.61.03-.92.02-.79.05-1.57.09-2.35.03-.77.07-1.55.12-2.32.09-1.54.21-3.08.34-4.59.1-1.06.2-2.11.32-3.16.11-1.05.24-2.09.37-3.11.08-.68.17-1.35.27-2.02.1-.7.2-1.4.31-2.1.15-1,.32-1.99.5-2.97.1-.6.21-1.19.33-1.78.11-.61.24-1.22.36-1.83.1-.54.21-1.07.33-1.6.29-1.33.59-2.64.91-3.93,1.06-4.28,2.3-8.37,3.71-12.22,8.25,2.7,15.25,7.99,19.96,14.88.94,1.37,1.79,2.81,2.53,4.31.07.05.14.1.21.16-.04,0-.08,0-.12.02-1.91.39-3.76.89-5.53,1.49-13.35,4.45-22.43,14.36-22.43,30.02,0,4.17.65,8.18,1.86,11.96.89,2.76,2.07,5.39,3.52,7.86,1.52,2.62,3.35,5.05,5.42,7.26.05.05.1.11.16.16,2.27,2.39,4.84,4.51,7.65,6.3,3.39,2.18,7.12,3.87,11.11,4.99-4.73,1.61-9,4.19-12.6,7.5ZM97.77,92.76c-1.28,1.66-3.52,2.76-6.07,2.76-3.93,0-7.12-2.59-7.19-5.82-.11,3.2-3.29,5.76-7.19,5.76-2.55,0-4.8-1.1-6.07-2.76-.59-.77.37-1.79,1.2-1.29,1.19.73,2.67,1.15,4.27,1.15,3.36,0,6.18-1.9,6.96-4.47-.05-.03-.1-.08-.14-.14l-2.78-3.67-.77-1.02c-.47-.61-.25-1.43.32-1.79.19-.12.41-.19.66-.19h7.11c.28,0,.53.09.72.23.53.38.71,1.16.26,1.75l-.84,1.11-2.71,3.58c-.05.06-.1.12-.16.17.77,2.58,3.6,4.5,6.97,4.5,1.6,0,3.07-.43,4.27-1.15.83-.51,1.79.51,1.2,1.29ZM120.68,91.25c-.17.5-.91.8-1.65.66l-11.74-2.19c-.74-.14-1.21-.66-1.04-1.17.17-.5.91-.8,1.65-.66l11.74,2.19c.74.14,1.21.66,1.04,1.17ZM119.53,82.35c.75-.09,1.47.25,1.61.76.14.51-.36,1.01-1.11,1.1l-11.85,1.48c-.75.09-1.47-.25-1.61-.76s.36-1.01,1.11-1.1l11.85-1.48ZM102.37,71.8c2.74,0,5.23,1.02,7.03,2.66.47.43,0,1.22-.61,1-1.52-.55-3.21-.86-5-.86-4.15,0-7.78,1.65-9.89,4.15-.43.51-1.23.02-1.01-.61,1.28-3.68,5.04-6.34,9.48-6.34Z"/>
    </g>
  </g>
</svg>